PathFileType	4	(X/Y/Z)	c:/Users/goper/Files/vsCode/490R/osim_files/C04/C04_Slow_02.trc
DataRate	CameraRate	NumFrames	NumMarkers	Units                	OrigDataRate	OrigDataStartFrame	OrigNumFrames
250.00	250.00	5	36	mm	250.0	3259	4344
                Frame#	Time	LPSIS			LASIS			LTH1			LTH2			LTH3			LTH4			LLFE			LMFE			LSH1			LSH2			LSH3			LSH4			LLMAL			LMMAL			LCAL			LMTP5			LTOE			LMTP1			RPSIS			RASIS			RTH1			RTH2			RTH3			RTH4			RLFE			RMFE			RSH1			RSH2			RSH3			RSH4			RLMAL			RMMAL			RCAL			RMTP1			RTOE			RMTP5		
		X1	Y1	Z1	X2	Y2	Z2	X3	Y3	Z3	X4	Y4	Z4	X5	Y5	Z5	X6	Y6	Z6	X7	Y7	Z7	X8	Y8	Z8	X9	Y9	Z9	X10	Y10	Z10	X11	Y11	Z11	X12	Y12	Z12	X13	Y13	Z13	X14	Y14	Z14	X15	Y15	Z15	X16	Y16	Z16	X17	Y17	Z17	X18	Y18	Z18	X19	Y19	Z19	X20	Y20	Z20	X21	Y21	Z21	X22	Y22	Z22	X23	Y23	Z23	X24	Y24	Z24	X25	Y25	Z25	X26	Y26	Z26	X27	Y27	Z27	X28	Y28	Z28	X29	Y29	Z29	X30	Y30	Z30	X31	Y31	Z31	X32	Y32	Z32	X33	Y33	Z33	X34	Y34	Z34	X35	Y35	Z35	X36	Y36	Z36

3259	13.03200	-1012.43896	968.04456	283.26270	-1186.21472	957.19617	352.87598	-1111.53357	702.51782	422.22992	-1132.09607	643.63885	406.21722	-1178.34998	725.22852	418.98685	-1203.70325	669.75647	402.74426	-1213.22583	453.38351	362.75159	-1204.21289	449.22266	248.48114	-1170.16968	347.86633	371.46432	-1160.97852	301.46393	368.60785	-1224.83594	344.73892	364.89978	-1226.43604	297.29959	360.45197	-1199.90710	63.95325	332.20428	-1188.94324	91.00376	247.37259	-1122.19421	42.82732	292.08463	-1329.47961	21.06383	333.04239	-1345.84753	49.50491	280.82510	-1311.09058	19.80126	229.89197	-1010.89062	966.98810	208.27039	-1184.26477	941.54272	135.95720	-1066.31201	709.88550	74.10070	-1069.39868	648.52283	84.10830	-1131.34485	717.95984	74.89695	-1146.01758	657.77856	84.13456	-1123.37000	435.10748	104.25388	-1135.30676	425.06104	216.95743	-991.33667	389.54697	89.89592	-960.17352	356.86359	96.01305	-1032.28711	342.49658	89.97363	-993.24817	314.71591	93.93460	-798.37396	208.24559	121.91702	-816.77936	216.66081	208.23851	-748.70984	261.11682	161.19484	-807.87469	83.72666	230.02664	-836.44269	52.65280	190.10532	-790.71008	63.02303	129.72769
3260	13.03600	-1016.62610	968.13153	283.71933	-1190.30066	957.10272	353.30228	-1117.30115	701.74561	421.66428	-1135.28638	643.47632	406.25974	-1179.75964	725.06519	419.29596	-1206.71924	669.50555	402.99646	-1215.65369	453.06949	362.86703	-1206.69556	448.99521	248.57167	-1171.91870	347.87473	371.46408	-1162.52234	301.45560	368.61935	-1226.68799	344.34583	364.93195	-1227.92603	297.12427	360.56897	-1200.07043	63.95348	332.16443	-1189.19202	90.93319	247.27885	-1122.36841	42.89109	292.09283	-1339.74695	12.95902	326.40836	-1345.99500	48.97318	280.79468	-1311.16516	19.41088	229.76813	-1014.97363	967.01123	208.58875	-1188.33435	941.72211	136.01468	-1071.77527	709.60901	74.33705	-1075.36414	648.25720	84.09744	-1136.58167	718.28363	74.98669	-1151.91577	658.26978	84.08151	-1131.70435	435.43536	103.97127	-1143.93604	425.34644	216.87943	-1000.03577	390.52069	89.88721	-968.76025	357.97778	95.96372	-1040.80286	343.44788	89.96587	-1001.63831	315.65860	93.91275	-806.34985	211.37022	121.29858	-824.94415	218.66090	208.46925	-757.08313	264.26773	161.93451	-814.12677	85.85445	229.82661	-842.01135	54.81744	189.54533	-795.97632	65.85504	129.39299
3261	13.04000	-1020.59845	968.28156	283.97040	-1194.35938	957.13245	353.70505	-1120.77039	701.61737	421.46362	-1138.11279	643.53040	406.19772	-1183.03845	724.77185	419.46533	-1209.59705	669.29382	403.21048	-1218.00488	452.90244	362.90485	-1209.13062	448.83667	248.60060	-1173.71094	347.88889	371.49802	-1164.06873	301.44061	368.59192	-1228.38721	344.05884	364.99054	-1229.50439	296.72165	360.49744	-1200.17834	63.93830	332.06592	-1189.34399	90.89807	247.20778	-1122.42004	43.01071	292.07178	-1339.71533	12.74854	326.39127	-1346.15125	48.57493	280.73932	-1311.25256	19.14529	229.70346	-1019.04236	967.17450	208.99022	-1192.51733	941.97363	136.08023	-1077.15063	709.33099	74.51361	-1081.46277	647.90259	84.14771	-1141.90137	718.62439	75.11398	-1157.88513	658.65332	84.14675	-1140.36230	435.69675	103.83583	-1152.40491	425.82272	216.81212	-1008.82172	391.47873	89.81989	-977.90924	358.85864	95.83685	-1049.88123	344.79886	89.52181	-1009.89911	316.51660	93.65422	-813.57953	213.87572	121.55978	-832.86969	220.65620	208.66180	-764.94647	267.02686	162.92329	-821.29871	87.73328	229.43890	-848.38440	56.71758	188.72826	-802.22791	68.48780	129.04634
3262	13.04400	-1024.86292	968.36609	284.37250	-1198.57825	957.22156	354.05377	-1123.63770	701.83124	421.40540	-1140.93872	643.56238	406.03549	-1186.20508	724.56360	419.64349	-1212.57617	668.98602	403.46747	-1220.44031	452.80087	362.88937	-1211.52051	448.67911	248.71231	-1175.60120	347.87473	371.59296	-1165.56592	301.49677	368.72098	-1230.23132	343.75250	365.02890	-1230.97839	296.53314	360.55087	-1200.26733	63.92425	332.03510	-1189.50391	90.83588	247.19859	-1122.46179	43.12292	292.04761	-1339.76721	12.55943	326.39969	-1346.18286	48.41810	280.65625	-1311.37195	18.90531	229.69505	-1023.00763	967.24872	209.40332	-1196.60388	942.26459	136.26991	-1082.49377	709.06763	74.69869	-1087.53650	647.63831	84.23880	-1147.26648	718.95007	75.35642	-1161.00623	660.42627	82.08678	-1148.73108	436.15033	103.60042	-1160.75366	426.39224	216.67299	-1017.46655	392.41272	89.70448	-985.88824	360.10941	95.78442	-1057.82642	345.26123	89.66426	-1018.36609	317.42596	93.68378	-820.62256	216.33971	121.89622	-840.90845	222.54521	208.96188	-772.71497	269.31903	164.06332	-829.35114	89.49073	229.01495	-856.06708	58.59172	187.81891	-809.14185	70.83603	128.73677
3263	13.04800	-1028.94360	968.47125	284.76340	-1202.80029	957.19873	354.16922	-1126.54480	702.02509	421.39340	-1143.85608	643.65997	405.99817	-1189.12146	724.51733	419.91904	-1215.61841	668.76154	403.62231	-1222.91663	452.80228	362.95081	-1213.94702	448.41608	248.81084	-1177.39502	347.89380	371.78452	-1167.15137	301.52243	368.82825	-1231.94031	343.50894	365.15375	-1232.54456	296.27802	360.63010	-1200.39539	63.94301	332.05609	-1189.61682	90.81377	247.22289	-1122.49548	43.23293	292.06116	-1339.80884	12.33262	326.47110	-1346.23230	48.17570	280.60709	-1311.41504	18.69784	229.68486	-1027.01770	967.33374	209.75703	-1200.58765	942.28784	136.56477	-1087.91187	708.85559	74.87533	-1093.45959	647.45007	84.27552	-1152.51282	719.39258	75.44140	-1166.57446	661.08557	81.93325	-1157.16431	436.64563	103.39062	-1168.96790	427.04538	216.63165	-1026.16577	393.39319	89.64587	-993.88696	361.17645	94.99411	-1066.03503	345.96844	90.52206	-1026.66113	318.40320	93.55879	-828.59119	218.93292	121.57008	-849.21796	224.22485	209.21422	-780.40875	271.17090	165.29430	-837.97931	91.02013	228.51117	-864.42035	60.39697	186.97998	-816.84351	73.01356	128.35205
